# xmcd CD database file
#
# Track frame offsets:
#	150
#	21232
#	44073
#	59363
#	83636
#	100295
#	103232
#	117447
#	134942
#	158376
#	174787
#	200822
#	225418
#
# Disc length: 3227 seconds
#
# Revision: 0
# Processed by: cddbd v1.5.2PL0 Copyright (c) Steve Scherf et al.
# Submitted via: CDex 1.70beta2
#
DISCID=b10c990d
DTITLE=Os Modernistas - The waiting room
DYEAR=1900
DGENRE=Jazz
TTITLE0=Saundio
TTITLE1=Beatiful unknown
TTITLE2=A heart can change
TTITLE3=Waiting room
TTITLE4=Soft lullaby
TTITLE5=Rainy day(Brazil intro)
TTITLE6=Rainy day
TTITLE7=Sometimes I wonder why
TTITLE8=Like an actress
TTITLE9=Glances
TTITLE10=Don't stop talking to me
TTITLE11=All the time
TTITLE12=Soft lullaby(inst.)
EXTD=
EXTT0=
EXTT1=
EXTT2=
EXTT3=
EXTT4=
EXTT5=
EXTT6=
EXTT7=
EXTT8=
EXTT9=
EXTT10=
EXTT11=
EXTT12=
PLAYORDER=
